TITLE ""
FILE "P1Q_t_0149-0158.mp3" MP3
  TRACK 01 AUDIO
    TITLE "P1Q_t_0149-0158_01"
    INDEX 01 00:00:00
  TRACK 02 AUDIO
    TITLE "P1Q_t_0149-0158_02"
    INDEX 01 00:01:31
  TRACK 03 AUDIO
    TITLE "P1Q_t_0149-0158_03"
    INDEX 01 00:01:53
  TRACK 04 AUDIO
    TITLE "P1Q_t_0149-0158_04"
    INDEX 01 00:04:12
  TRACK 05 AUDIO
    TITLE "P1Q_t_0149-0158_05"
    INDEX 01 00:04:32
  TRACK 06 AUDIO
    TITLE "P1Q_t_0149-0158_06"
    INDEX 01 00:08:14
  TRACK 07 AUDIO
    TITLE "P1Q_t_0149-0158_07"
    INDEX 01 00:08:59
  TRACK 08 AUDIO
    TITLE "P1Q_t_0149-0158_08"
    INDEX 01 00:09:66
  TRACK 09 AUDIO
    TITLE "P1Q_t_0149-0158_09"
    INDEX 01 00:10:11
  TRACK 10 AUDIO
    TITLE "P1Q_t_0149-0158_10"
    INDEX 01 00:11:22
  TRACK 11 AUDIO
    TITLE "P1Q_t_0149-0158_11"
    INDEX 01 00:11:41
  TRACK 12 AUDIO
    TITLE "P1Q_t_0149-0158_12"
    INDEX 01 00:16:25
  TRACK 13 AUDIO
    TITLE "P1Q_t_0149-0158_13"
    INDEX 01 00:16:74
  TRACK 14 AUDIO
    TITLE "P1Q_t_0149-0158_14"
    INDEX 01 00:18:08
  TRACK 15 AUDIO
    TITLE "P1Q_t_0149-0158_15"
    INDEX 01 00:18:32
  TRACK 16 AUDIO
    TITLE "P1Q_t_0149-0158_16"
    INDEX 01 00:21:50
  TRACK 17 AUDIO
    TITLE "P1Q_t_0149-0158_17"
    INDEX 01 00:21:69
  TRACK 18 AUDIO
    TITLE "P1Q_t_0149-0158_18"
    INDEX 01 00:27:29
  TRACK 19 AUDIO
    TITLE "P1Q_t_0149-0158_19"
    INDEX 01 00:27:74
  TRACK 20 AUDIO
    TITLE "P1Q_t_0149-0158_20"
    INDEX 01 00:29:18
  TRACK 21 AUDIO
    TITLE "P1Q_t_0149-0158_21"
    INDEX 01 00:29:39
  TRACK 22 AUDIO
    TITLE "P1Q_t_0149-0158_22"
    INDEX 01 00:30:49
  TRACK 23 AUDIO
    TITLE "P1Q_t_0149-0158_23"
    INDEX 01 00:30:68
  TRACK 24 AUDIO
    TITLE "P1Q_t_0149-0158_24"
    INDEX 01 00:35:34
  TRACK 25 AUDIO
    TITLE "P1Q_t_0149-0158_25"
    INDEX 01 00:36:04
  TRACK 26 AUDIO
    TITLE "P1Q_t_0149-0158_26"
    INDEX 01 00:37:29
  TRACK 27 AUDIO
    TITLE "P1Q_t_0149-0158_27"
    INDEX 01 00:37:51
  TRACK 28 AUDIO
    TITLE "P1Q_t_0149-0158_28"
    INDEX 01 00:42:38
  TRACK 29 AUDIO
    TITLE "P1Q_t_0149-0158_29"
    INDEX 01 00:42:58
  TRACK 30 AUDIO
    TITLE "P1Q_t_0149-0158_30"
    INDEX 01 00:47:53
  TRACK 31 AUDIO
    TITLE "P1Q_t_0149-0158_31"
    INDEX 01 00:48:23
  TRACK 32 AUDIO
    TITLE "P1Q_t_0149-0158_32"
    INDEX 01 00:49:28
  TRACK 33 AUDIO
    TITLE "P1Q_t_0149-0158_33"
    INDEX 01 00:49:52
  TRACK 34 AUDIO
    TITLE "P1Q_t_0149-0158_34"
    INDEX 01 00:51:57
  TRACK 35 AUDIO
    TITLE "P1Q_t_0149-0158_35"
    INDEX 01 00:52:01
  TRACK 36 AUDIO
    TITLE "P1Q_t_0149-0158_36"
    INDEX 01 00:56:30
  TRACK 37 AUDIO
    TITLE "P1Q_t_0149-0158_37"
    INDEX 01 00:57:00
  TRACK 38 AUDIO
    TITLE "P1Q_t_0149-0158_38"
    INDEX 01 00:58:21
  TRACK 39 AUDIO
    TITLE "P1Q_t_0149-0158_39"
    INDEX 01 00:58:43
  TRACK 40 AUDIO
    TITLE "P1Q_t_0149-0158_40"
    INDEX 01 01:00:67
  TRACK 41 AUDIO
    TITLE "P1Q_t_0149-0158_41"
    INDEX 01 01:01:12
  TRACK 42 AUDIO
    TITLE "P1Q_t_0149-0158_42"
    INDEX 01 01:05:55
  TRACK 43 AUDIO
    TITLE "P1Q_t_0149-0158_43"
    INDEX 01 01:06:25
  TRACK 44 AUDIO
    TITLE "P1Q_t_0149-0158_44"
    INDEX 01 01:07:52
  TRACK 45 AUDIO
    TITLE "P1Q_t_0149-0158_45"
    INDEX 01 01:07:73
  TRACK 46 AUDIO
    TITLE "P1Q_t_0149-0158_46"
    INDEX 01 01:09:33
  TRACK 47 AUDIO
    TITLE "P1Q_t_0149-0158_47"
    INDEX 01 01:09:55
  TRACK 48 AUDIO
    TITLE "P1Q_t_0149-0158_48"
    INDEX 01 01:13:35
  TRACK 49 AUDIO
    TITLE "P1Q_t_0149-0158_49"
    INDEX 01 01:14:07
  TRACK 50 AUDIO
    TITLE "P1Q_t_0149-0158_50"
    INDEX 01 01:15:30
  TRACK 51 AUDIO
    TITLE "P1Q_t_0149-0158_51"
    INDEX 01 01:15:51
  TRACK 52 AUDIO
    TITLE "P1Q_t_0149-0158_52"
    INDEX 01 01:18:01
  TRACK 53 AUDIO
    TITLE "P1Q_t_0149-0158_53"
    INDEX 01 01:18:20
  TRACK 54 AUDIO
    TITLE "P1Q_t_0149-0158_54"
    INDEX 01 01:24:13
  TRACK 55 AUDIO
    TITLE "P1Q_t_0149-0158_55"
    INDEX 01 01:24:60
  TRACK 56 AUDIO
    TITLE "P1Q_t_0149-0158_56"
    INDEX 01 01:26:28
  TRACK 57 AUDIO
    TITLE "P1Q_t_0149-0158_57"
    INDEX 01 01:26:49
  TRACK 58 AUDIO
    TITLE "P1Q_t_0149-0158_58"
    INDEX 01 01:29:06
  TRACK 59 AUDIO
    TITLE "P1Q_t_0149-0158_59"
    INDEX 01 01:29:28
  TRACK 60 AUDIO
    TITLE "P1Q_t_0149-0158_60"
    INDEX 01 01:34:72
